#N canvas 573 176 1013 769 10;
#X obj 38 27 import purest_json;
#X obj 54 287 rest;
#X obj 54 315 json-decode;
#X obj 54 344 list trim;
#X obj 54 109 inlet;
#X obj 53 375 outlet;
#X obj 54 140 send config;
#X obj 54 230 receive config;
#X text 36 55 example config inlet value:;
#X text 36 90 config inlet;
#X msg 54 259 GET \$1\$2/\$3;
#X msg 203 55 list http://localhost:8080/ pd_queue 3;
#X obj 117 376 outlet;
#X connect 1 0 2 0;
#X connect 2 0 3 0;
#X connect 2 1 12 0;
#X connect 3 0 5 0;
#X connect 4 0 6 0;
#X connect 7 0 10 0;
#X connect 10 0 1 0;
