#N canvas 752 237 1013 769 10;
#X obj 38 27 import purest_json;
#X obj 110 350 rest;
#X obj 110 378 json-decode;
#X obj 123 456 json-decode;
#X obj 123 483 list trim;
#X obj 139 541 json-decode;
#X obj 123 434 route _embedded;
#X obj 155 568 list trim;
#X text 39 98 ** ReVoicr Apigility Adapter **;
#X obj 110 172 inlet;
#X obj 155 620 outlet;
#X text 39 114 Extracts the object data from _embedded object from
JSON-HAL;
#X msg 203 55 list http://localhost:8080/ pd_queue;
#X msg 110 322 GET \$1\$2;
#X msg 258 480 symbol \$2;
#X obj 110 203 send config;
#X obj 110 293 receive config;
#X obj 258 449 receive config;
#X obj 139 513 route index;
#X text 36 55 example config inlet value:;
#X text 92 153 config inlet;
#X text 256 425 JSON-HAL returns object with name of method in _embedded
;
#X obj 110 406 route list;
#X connect 1 0 2 0;
#X connect 2 0 22 0;
#X connect 3 0 4 0;
#X connect 4 0 18 0;
#X connect 5 0 7 0;
#X connect 6 0 3 0;
#X connect 7 0 10 0;
#X connect 9 0 15 0;
#X connect 13 0 1 0;
#X connect 14 0 18 1;
#X connect 16 0 13 0;
#X connect 17 0 14 0;
#X connect 18 0 5 0;
#X connect 22 0 6 0;
