#N canvas 1190 136 712 353 10;
#X floatatom 201 209 5 0 0 0 - - -, f 5;
#X floatatom 204 270 5 0 0 0 - - -, f 5;
#X obj 147 68 rest-client;
#X obj 190 179 route duration;
#X obj 191 239 route value;
#X msg 97 15 list http://localhost:8080/ pd_queue 34;
#X obj 371 272 dac~;
#X obj 378 200 _jk_main;
#X obj 195 127 route audiofile;
#X obj 47 176 print debug;
#X obj 314 167 a2l;
#X obj 491 278 writesf~ 2;
#X msg 463 116 open -bytes 4 /tmp/foo.wav;
#X text 628 116 create 32-bit floating-point soundfile;
#X msg 519 150 start;
#X msg 530 183 stop;
#X connect 2 0 3 0;
#X connect 2 0 4 0;
#X connect 2 0 8 0;
#X connect 3 0 0 0;
#X connect 4 0 1 0;
#X connect 5 0 2 0;
#X connect 7 0 6 0;
#X connect 7 0 6 1;
#X connect 7 0 11 0;
#X connect 7 0 11 1;
#X connect 8 0 9 0;
#X connect 8 0 10 0;
#X connect 10 0 7 0;
#X connect 12 0 11 0;
#X connect 14 0 11 0;
#X connect 15 0 11 0;
